<svg xmlns="http://www.w3.org/2000/svg" xmlns:xlink="http://www.w3.org/1999/xlink" width="100" height="100" preserveAspectRatio="xMidYMid meet" version="1.0" viewBox="0 0 75 75" zoomAndPan="magnify"><defs><clipPath id="8f8fa1f26e"><path d="M 9.261719 26.699219 L 53.351562 26.699219 L 53.351562 63.734375 L 9.261719 63.734375 Z M 9.261719 26.699219" clip-rule="nonzero"/></clipPath><clipPath id="41b78cb598"><path d="M 52.222656 43.757812 L 51.875 43.984375 L 51.703125 52.777344 C 38.117188 53.664062 24.71875 54.542969 11.269531 55.421875 L 11.269531 28.242188 C 17.039062 28.242188 22.652344 28.222656 28.261719 28.257812 C 29.535156 28.265625 30.226562 27.984375 29.816406 26.730469 L 9.414062 26.730469 L 9.414062 60.710938 C 15.566406 60.292969 21.507812 59.886719 27.484375 59.476562 L 27.484375 62.53125 C 26.457031 62.742188 25.539062 62.929688 24.621094 63.117188 L 24.71875 63.574219 C 29.597656 63.410156 34.433594 63.019531 39.269531 62.632812 L 39.253906 62.191406 L 36.605469 61.96875 L 36.605469 58.789062 C 42.210938 58.367188 47.714844 57.953125 53.3125 57.53125 C 53.3125 53.148438 53.335938 49.003906 53.265625 44.867188 C 53.257812 44.492188 52.589844 44.125 52.226562 43.757812" clip-rule="nonzero"/></clipPath><clipPath id="007fb08d50"><path d="M 0.359375 0.699219 L 44.351562 0.699219 L 44.351562 37.601562 L 0.359375 37.601562 Z M 0.359375 0.699219" clip-rule="nonzero"/></clipPath><clipPath id="af8de1705f"><path d="M 43.222656 17.757812 L 42.875 17.984375 L 42.703125 26.777344 C 29.117188 27.664062 15.71875 28.542969 2.269531 29.421875 L 2.269531 2.242188 C 8.039062 2.242188 13.652344 2.222656 19.261719 2.257812 C 20.535156 2.265625 21.226562 1.984375 20.816406 0.730469 L 0.414062 0.730469 L 0.414062 34.710938 C 6.566406 34.292969 12.507812 33.886719 18.484375 33.476562 L 18.484375 36.53125 C 17.457031 36.742188 16.539062 36.929688 15.621094 37.117188 L 15.71875 37.574219 C 20.597656 37.410156 25.433594 37.019531 30.269531 36.632812 L 30.253906 36.191406 L 27.605469 35.96875 L 27.605469 32.789062 C 33.210938 32.367188 38.714844 31.953125 44.3125 31.53125 C 44.3125 27.148438 44.335938 23.003906 44.265625 18.867188 C 44.257812 18.492188 43.589844 18.125 43.226562 17.757812" clip-rule="nonzero"/></clipPath><clipPath id="0f4f8218ae"><rect width="45" height="38" x="0" y="0"/></clipPath><clipPath id="92cffc1e3f"><path d="M 46.519531 42.789062 L 50.488281 42.789062 L 50.488281 46.539062 L 46.519531 46.539062 Z M 46.519531 42.789062" clip-rule="nonzero"/></clipPath><clipPath id="e41d331e9b"><path d="M 50.300781 44.671875 C 50.300781 45.695312 49.46875 46.523438 48.449219 46.523438 C 47.429688 46.523438 46.59375 45.695312 46.59375 44.671875 C 46.59375 43.648438 47.425781 42.820312 48.449219 42.820312 C 49.472656 42.820312 50.300781 43.648438 50.300781 44.671875" clip-rule="nonzero"/></clipPath><clipPath id="02ce745a3d"><path d="M 0.558594 0.789062 L 4.398438 0.789062 L 4.398438 4.539062 L 0.558594 4.539062 Z M 0.558594 0.789062" clip-rule="nonzero"/></clipPath><clipPath id="efdce4e980"><path d="M 4.300781 2.671875 C 4.300781 3.695312 3.46875 4.523438 2.449219 4.523438 C 1.429688 4.523438 0.59375 3.695312 0.59375 2.671875 C 0.59375 1.648438 1.425781 0.820312 2.449219 0.820312 C 3.472656 0.820312 4.300781 1.648438 4.300781 2.671875" clip-rule="nonzero"/></clipPath><clipPath id="01d798cdf1"><rect width="5" height="5" x="0" y="0"/></clipPath><clipPath id="f7855c4188"><path d="M 25 11.046875 L 65.695312 11.046875 L 65.695312 48.300781 L 25 48.300781 Z M 25 11.046875" clip-rule="nonzero"/></clipPath><clipPath id="9ba4d0d406"><path d="M 31.253906 12.542969 C 32.15625 12.542969 32.886719 13.277344 32.886719 14.175781 C 32.886719 15.078125 32.15625 15.808594 31.253906 15.808594 C 30.355469 15.808594 29.621094 15.078125 29.621094 14.175781 C 29.621094 13.277344 30.355469 12.542969 31.253906 12.542969 Z M 41.148438 23.9375 C 41.917969 23.9375 42.546875 24.5625 42.546875 25.335938 C 42.546875 26.109375 41.921875 26.730469 41.148438 26.730469 C 40.375 26.730469 39.753906 26.105469 39.753906 25.335938 C 39.753906 24.566406 40.378906 23.9375 41.148438 23.9375 Z M 57.375 28.933594 C 58.167969 28.933594 58.808594 29.578125 58.808594 30.367188 C 58.808594 31.15625 58.167969 31.800781 57.375 31.800781 C 56.582031 31.800781 55.941406 31.160156 55.941406 30.367188 C 55.941406 29.574219 56.585938 28.933594 57.375 28.933594 Z M 62.746094 40.679688 C 63.609375 40.679688 64.316406 41.382812 64.316406 42.25 C 64.316406 43.117188 63.609375 43.820312 62.746094 43.820312 C 61.878906 43.820312 61.175781 43.117188 61.175781 42.25 C 61.175781 41.378906 61.878906 40.679688 62.746094 40.679688 Z M 31.21875 11.199219 C 30.210938 11.199219 29.296875 11.773438 28.730469 12.832031 C 27.894531 14.386719 28.449219 15.742188 30.292969 16.910156 C 30.722656 17.179688 31.175781 17.679688 31.273438 18.144531 C 31.5625 19.515625 31.746094 20.914062 31.847656 22.308594 C 32.53125 31.496094 30.535156 40.027344 25.125 48.203125 C 27.519531 47.238281 29.421875 46.542969 31.273438 45.71875 C 37.335938 43.007812 43.539062 41.441406 49.929688 41.441406 C 52.683594 41.441406 55.46875 41.730469 58.292969 42.34375 C 59.007812 42.503906 59.765625 43.109375 60.21875 43.714844 C 60.90625 44.625 61.820312 45.136719 62.753906 45.136719 C 63.246094 45.136719 63.75 44.992188 64.21875 44.6875 C 65.089844 44.125 65.578125 43.132812 65.582031 42.144531 L 65.582031 42.109375 C 65.578125 41.597656 65.445312 41.089844 65.171875 40.636719 C 64.640625 39.769531 63.753906 39.328125 62.792969 39.328125 C 62.25 39.328125 61.683594 39.472656 61.148438 39.753906 C 60.667969 40.007812 60.050781 40.195312 59.5 40.195312 C 59.371094 40.195312 59.25 40.1875 59.132812 40.164062 C 56 39.621094 52.875 39.300781 49.742188 39.300781 C 46.914062 39.300781 44.082031 39.5625 41.253906 40.148438 L 36.824219 41.238281 C 41.992188 37.574219 47.597656 34.867188 53.4375 32.636719 C 53.898438 32.457031 54.324219 32.308594 54.757812 32.308594 C 55.160156 32.308594 55.574219 32.4375 56.046875 32.789062 C 56.449219 33.089844 56.902344 33.226562 57.351562 33.226562 C 58.300781 33.226562 59.257812 32.632812 59.785156 31.710938 C 60.550781 30.378906 60.167969 28.683594 58.898438 27.808594 C 58.390625 27.453125 57.761719 27.269531 57.160156 27.269531 C 56.324219 27.269531 55.535156 27.628906 55.199219 28.40625 C 54.386719 30.273438 52.734375 30.484375 51.257812 31.199219 L 37.375 38.011719 C 36.855469 38.269531 36.367188 38.574219 35.695312 38.953125 C 37.605469 35.464844 39.351562 32.21875 41.167969 29.007812 C 41.421875 28.5625 41.957031 28.242188 42.421875 27.957031 C 44.023438 26.96875 44.5625 25.351562 43.726562 23.898438 C 43.15625 22.90625 42.230469 22.367188 41.25 22.367188 C 40.765625 22.367188 40.265625 22.5 39.800781 22.777344 C 38.292969 23.671875 37.929688 25.261719 38.820312 26.929688 C 39 27.269531 39.324219 27.78125 39.203125 28.003906 L 32.390625 40.007812 C 32.214844 39.914062 32.039062 39.820312 31.863281 39.726562 L 32.125 38.851562 C 33.96875 32.730469 34.734375 26.527344 33.777344 20.152344 C 33.554688 18.6875 33.386719 17.089844 33.746094 15.695312 C 34.230469 13.796875 33.960938 12.152344 32.4375 11.472656 C 32.027344 11.289062 31.613281 11.199219 31.21875 11.199219 Z M 31.21875 11.199219" clip-rule="nonzero"/></clipPath><clipPath id="3f2a28eca9"><path d="M 0 0.046875 L 40.695312 0.046875 L 40.695312 37.238281 L 0 37.238281 Z M 0 0.046875" clip-rule="nonzero"/></clipPath><clipPath id="db40562da1"><path d="M 6.253906 1.542969 C 7.15625 1.542969 7.886719 2.277344 7.886719 3.175781 C 7.886719 4.078125 7.15625 4.808594 6.253906 4.808594 C 5.355469 4.808594 4.621094 4.078125 4.621094 3.175781 C 4.621094 2.277344 5.355469 1.542969 6.253906 1.542969 Z M 16.148438 12.9375 C 16.917969 12.9375 17.546875 13.5625 17.546875 14.335938 C 17.546875 15.109375 16.921875 15.730469 16.148438 15.730469 C 15.375 15.730469 14.753906 15.105469 14.753906 14.335938 C 14.753906 13.566406 15.378906 12.9375 16.148438 12.9375 Z M 32.375 17.933594 C 33.167969 17.933594 33.808594 18.578125 33.808594 19.367188 C 33.808594 20.15625 33.167969 20.800781 32.375 20.800781 C 31.582031 20.800781 30.941406 20.160156 30.941406 19.367188 C 30.941406 18.574219 31.585938 17.933594 32.375 17.933594 Z M 37.746094 29.679688 C 38.609375 29.679688 39.316406 30.382812 39.316406 31.25 C 39.316406 32.117188 38.609375 32.820312 37.746094 32.820312 C 36.878906 32.820312 36.175781 32.117188 36.175781 31.25 C 36.175781 30.378906 36.878906 29.679688 37.746094 29.679688 Z M 6.21875 0.199219 C 5.210938 0.199219 4.296875 0.773438 3.730469 1.832031 C 2.894531 3.386719 3.449219 4.742188 5.292969 5.910156 C 5.722656 6.179688 6.175781 6.679688 6.273438 7.144531 C 6.5625 8.515625 6.746094 9.914062 6.847656 11.308594 C 7.53125 20.496094 5.535156 29.027344 0.125 37.203125 C 2.519531 36.238281 4.421875 35.542969 6.273438 34.71875 C 12.335938 32.007812 18.539062 30.441406 24.929688 30.441406 C 27.683594 30.441406 30.46875 30.730469 33.292969 31.34375 C 34.007812 31.503906 34.765625 32.109375 35.21875 32.714844 C 35.90625 33.625 36.820312 34.136719 37.753906 34.136719 C 38.246094 34.136719 38.75 33.992188 39.21875 33.6875 C 40.089844 33.125 40.578125 32.132812 40.582031 31.144531 L 40.582031 31.109375 C 40.578125 30.597656 40.445312 30.089844 40.171875 29.636719 C 39.640625 28.769531 38.753906 28.328125 37.792969 28.328125 C 37.25 28.328125 36.683594 28.472656 36.148438 28.753906 C 35.667969 29.007812 35.050781 29.195312 34.5 29.195312 C 34.371094 29.195312 34.25 29.1875 34.132812 29.164062 C 31 28.621094 27.875 28.300781 24.742188 28.300781 C 21.914062 28.300781 19.082031 28.5625 16.253906 29.148438 L 11.824219 30.238281 C 16.992188 26.574219 22.597656 23.867188 28.4375 21.636719 C 28.898438 21.457031 29.324219 21.308594 29.757812 21.308594 C 30.160156 21.308594 30.574219 21.4375 31.046875 21.789062 C 31.449219 22.089844 31.902344 22.226562 32.351562 22.226562 C 33.300781 22.226562 34.257812 21.632812 34.785156 20.710938 C 35.550781 19.378906 35.167969 17.683594 33.898438 16.808594 C 33.390625 16.453125 32.761719 16.269531 32.160156 16.269531 C 31.324219 16.269531 30.535156 16.628906 30.199219 17.40625 C 29.386719 19.273438 27.734375 19.484375 26.257812 20.199219 L 12.375 27.011719 C 11.855469 27.269531 11.367188 27.574219 10.695312 27.953125 C 12.605469 24.464844 14.351562 21.21875 16.167969 18.007812 C 16.421875 17.5625 16.957031 17.242188 17.421875 16.957031 C 19.023438 15.96875 19.5625 14.351562 18.726562 12.898438 C 18.15625 11.90625 17.230469 11.367188 16.25 11.367188 C 15.765625 11.367188 15.265625 11.5 14.800781 11.777344 C 13.292969 12.671875 12.929688 14.261719 13.820312 15.929688 C 14 16.269531 14.324219 16.78125 14.203125 17.003906 L 7.390625 29.007812 C 7.214844 28.914062 7.039062 28.820312 6.863281 28.726562 L 7.125 27.851562 C 8.96875 21.730469 9.734375 15.527344 8.777344 9.152344 C 8.554688 7.6875 8.386719 6.089844 8.746094 4.695312 C 9.230469 2.796875 8.960938 1.152344 7.4375 0.472656 C 7.027344 0.289062 6.613281 0.199219 6.21875 0.199219 Z M 6.21875 0.199219" clip-rule="nonzero"/></clipPath><clipPath id="f45f1d210e"><rect width="41" height="38" x="0" y="0"/></clipPath></defs><rect width="90" height="90" x="-7.5" y="-7.5" fill="#fff" fill-opacity="1"/><rect width="90" height="90" x="-7.5" y="-7.5" fill="#000" fill-opacity="1"/><g clip-path="url(#8f8fa1f26e)"><g clip-path="url(#41b78cb598)"><g><g clip-path="url(#0f4f8218ae)" transform="matrix(1, 0, 0, 1, 9, 26)"><g clip-path="url(#007fb08d50)"><g clip-path="url(#af8de1705f)"><rect width="108" height="108" x="-25.5" y="-42.5" fill="#fff" fill-opacity="1"/></g></g></g></g></g></g><g clip-path="url(#92cffc1e3f)"><g clip-path="url(#e41d331e9b)"><g><g clip-path="url(#01d798cdf1)" transform="matrix(1, 0, 0, 1, 46, 42)"><g clip-path="url(#02ce745a3d)"><g clip-path="url(#efdce4e980)"><rect width="108" height="108" x="-62.5" y="-58.5" fill="#00c2ff" fill-opacity="1"/></g></g></g></g></g></g><g clip-path="url(#f7855c4188)"><g clip-path="url(#9ba4d0d406)"><g><g clip-path="url(#f45f1d210e)" transform="matrix(1, 0, 0, 1, 25, 11)"><g clip-path="url(#3f2a28eca9)"><g clip-path="url(#db40562da1)"><rect width="108" height="108" x="-41.5" y="-27.5" fill="#00c2ff" fill-opacity="1"/></g></g></g></g></g></g></svg>