<svg xmlns="http://www.w3.org/2000/svg" xmlns:xlink="http://www.w3.org/1999/xlink" width="50" zoomAndPan="magnify" viewBox="0 0 37.5 37.499999" height="50" preserveAspectRatio="xMidYMid meet" version="1.0"><defs><clipPath id="c694f2a020"><path d="M 1.085938 11.839844 L 28.28125 11.839844 L 28.28125 34.683594 L 1.085938 34.683594 Z M 1.085938 11.839844 " clip-rule="nonzero"/></clipPath><clipPath id="23a9ecae2e"><path d="M 27.582031 22.363281 L 27.367188 22.503906 L 27.261719 27.925781 C 18.882812 28.472656 10.617188 29.015625 2.324219 29.558594 L 2.324219 12.792969 C 5.882812 12.792969 9.34375 12.78125 12.804688 12.804688 C 13.589844 12.808594 14.019531 12.632812 13.765625 11.859375 L 1.183594 11.859375 L 1.183594 32.820312 C 4.976562 32.5625 8.640625 32.3125 12.324219 32.058594 L 12.324219 33.941406 C 11.691406 34.070312 11.128906 34.1875 10.558594 34.304688 L 10.617188 34.585938 C 13.628906 34.484375 16.613281 34.242188 19.59375 34.003906 L 19.585938 33.730469 L 17.949219 33.59375 L 17.949219 31.632812 C 21.40625 31.375 24.804688 31.117188 28.253906 30.859375 C 28.253906 28.152344 28.273438 25.597656 28.226562 23.046875 C 28.222656 22.816406 27.8125 22.589844 27.585938 22.363281 " clip-rule="nonzero"/></clipPath><clipPath id="de08378db9"><path d="M 0.0859375 0.84375 L 27.28125 0.84375 L 27.28125 23.683594 L 0.0859375 23.683594 Z M 0.0859375 0.84375 " clip-rule="nonzero"/></clipPath><clipPath id="c76316d9a7"><path d="M 26.582031 11.363281 L 26.367188 11.503906 L 26.261719 16.925781 C 17.882812 17.472656 9.617188 18.015625 1.324219 18.558594 L 1.324219 1.792969 C 4.882812 1.792969 8.34375 1.78125 11.804688 1.804688 C 12.589844 1.808594 13.019531 1.632812 12.765625 0.859375 L 0.183594 0.859375 L 0.183594 21.820312 C 3.976562 21.5625 7.640625 21.3125 11.324219 21.058594 L 11.324219 22.941406 C 10.691406 23.070312 10.128906 23.1875 9.558594 23.304688 L 9.617188 23.585938 C 12.628906 23.484375 15.613281 23.242188 18.59375 23.003906 L 18.585938 22.730469 L 16.949219 22.59375 L 16.949219 20.632812 C 20.40625 20.375 23.804688 20.117188 27.253906 19.859375 C 27.253906 17.152344 27.273438 14.597656 27.226562 12.046875 C 27.222656 11.816406 26.8125 11.589844 26.585938 11.363281 " clip-rule="nonzero"/></clipPath><clipPath id="4bfd44275d"><rect x="0" width="28" y="0" height="24"/></clipPath><clipPath id="5cd9495784"><path d="M 24.066406 21.765625 L 26.511719 21.765625 L 26.511719 24.078125 L 24.066406 24.078125 Z M 24.066406 21.765625 " clip-rule="nonzero"/></clipPath><clipPath id="c657146f1c"><path d="M 26.398438 22.925781 C 26.398438 23.558594 25.882812 24.066406 25.253906 24.066406 C 24.628906 24.066406 24.113281 23.558594 24.113281 22.925781 C 24.113281 22.296875 24.625 21.785156 25.253906 21.785156 C 25.886719 21.785156 26.398438 22.296875 26.398438 22.925781 " clip-rule="nonzero"/></clipPath><clipPath id="6de42efa4b"><path d="M 0.0664062 0.765625 L 2.511719 0.765625 L 2.511719 3.078125 L 0.0664062 3.078125 Z M 0.0664062 0.765625 " clip-rule="nonzero"/></clipPath><clipPath id="22f3f4fb2c"><path d="M 2.398438 1.925781 C 2.398438 2.558594 1.882812 3.066406 1.253906 3.066406 C 0.628906 3.066406 0.113281 2.558594 0.113281 1.925781 C 0.113281 1.296875 0.625 0.785156 1.253906 0.785156 C 1.886719 0.785156 2.398438 1.296875 2.398438 1.925781 " clip-rule="nonzero"/></clipPath><clipPath id="4adc5df2c5"><rect x="0" width="3" y="0" height="4"/></clipPath><clipPath id="d5eafb0049"><path d="M 10.742188 2.1875 L 35.894531 2.1875 L 35.894531 25.164062 L 10.742188 25.164062 Z M 10.742188 2.1875 " clip-rule="nonzero"/></clipPath><clipPath id="b4b25bb257"><path d="M 14.652344 3.109375 C 15.207031 3.109375 15.65625 3.5625 15.65625 4.117188 C 15.65625 4.671875 15.207031 5.125 14.652344 5.125 C 14.09375 5.125 13.644531 4.671875 13.644531 4.117188 C 13.644531 3.5625 14.09375 3.109375 14.652344 3.109375 Z M 20.753906 10.136719 C 21.226562 10.136719 21.617188 10.523438 21.617188 11 C 21.617188 11.476562 21.230469 11.859375 20.753906 11.859375 C 20.277344 11.859375 19.894531 11.476562 19.894531 11 C 19.894531 10.523438 20.277344 10.136719 20.753906 10.136719 Z M 30.761719 13.21875 C 31.25 13.21875 31.648438 13.617188 31.648438 14.101562 C 31.648438 14.589844 31.25 14.988281 30.761719 14.988281 C 30.273438 14.988281 29.878906 14.59375 29.878906 14.101562 C 29.878906 13.613281 30.277344 13.21875 30.761719 13.21875 Z M 34.074219 20.464844 C 34.609375 20.464844 35.042969 20.898438 35.042969 21.433594 C 35.042969 21.964844 34.609375 22.402344 34.074219 22.402344 C 33.539062 22.402344 33.105469 21.96875 33.105469 21.433594 C 33.105469 20.894531 33.539062 20.464844 34.074219 20.464844 Z M 14.628906 2.28125 C 14.007812 2.28125 13.441406 2.636719 13.09375 3.289062 C 12.578125 4.246094 12.921875 5.085938 14.058594 5.804688 C 14.324219 5.972656 14.605469 6.277344 14.664062 6.566406 C 14.839844 7.410156 14.953125 8.273438 15.015625 9.132812 C 15.4375 14.800781 14.207031 20.0625 10.871094 25.105469 C 12.347656 24.507812 13.519531 24.078125 14.664062 23.570312 C 18.402344 21.902344 22.226562 20.933594 26.171875 20.933594 C 27.867188 20.933594 29.585938 21.113281 31.328125 21.492188 C 31.769531 21.589844 32.234375 21.960938 32.515625 22.335938 C 32.9375 22.898438 33.503906 23.214844 34.078125 23.214844 C 34.382812 23.214844 34.691406 23.125 34.984375 22.9375 C 35.519531 22.589844 35.820312 21.976562 35.824219 21.367188 L 35.824219 21.347656 C 35.820312 21.03125 35.738281 20.714844 35.570312 20.4375 C 35.242188 19.902344 34.695312 19.632812 34.105469 19.632812 C 33.769531 19.632812 33.417969 19.71875 33.089844 19.894531 C 32.792969 20.050781 32.414062 20.164062 32.070312 20.164062 C 31.992188 20.164062 31.917969 20.160156 31.84375 20.148438 C 29.914062 19.8125 27.984375 19.613281 26.054688 19.613281 C 24.308594 19.613281 22.5625 19.777344 20.820312 20.136719 L 18.085938 20.808594 C 21.273438 18.550781 24.730469 16.878906 28.332031 15.503906 C 28.617188 15.394531 28.878906 15.300781 29.148438 15.300781 C 29.398438 15.300781 29.652344 15.378906 29.941406 15.597656 C 30.191406 15.785156 30.46875 15.867188 30.75 15.867188 C 31.332031 15.867188 31.921875 15.5 32.25 14.933594 C 32.71875 14.109375 32.484375 13.066406 31.699219 12.523438 C 31.390625 12.308594 31 12.195312 30.628906 12.195312 C 30.113281 12.195312 29.628906 12.414062 29.421875 12.894531 C 28.917969 14.046875 27.902344 14.175781 26.988281 14.617188 L 18.425781 18.820312 C 18.105469 18.976562 17.804688 19.164062 17.390625 19.398438 C 18.566406 17.246094 19.644531 15.246094 20.765625 13.265625 C 20.921875 12.992188 21.253906 12.792969 21.539062 12.617188 C 22.527344 12.007812 22.859375 11.007812 22.34375 10.113281 C 21.992188 9.5 21.417969 9.167969 20.816406 9.167969 C 20.515625 9.167969 20.210938 9.25 19.921875 9.425781 C 18.992188 9.972656 18.769531 10.957031 19.316406 11.984375 C 19.425781 12.195312 19.628906 12.507812 19.554688 12.644531 L 15.351562 20.050781 C 15.246094 19.992188 15.136719 19.933594 15.027344 19.878906 L 15.1875 19.335938 C 16.324219 15.5625 16.796875 11.734375 16.207031 7.800781 C 16.070312 6.898438 15.96875 5.914062 16.1875 5.054688 C 16.488281 3.882812 16.320312 2.871094 15.382812 2.449219 C 15.128906 2.335938 14.875 2.28125 14.628906 2.28125 Z M 14.628906 2.28125 " clip-rule="nonzero"/></clipPath><clipPath id="45b45bff7a"><path d="M 0.742188 0.1875 L 25.894531 0.1875 L 25.894531 23.164062 L 0.742188 23.164062 Z M 0.742188 0.1875 " clip-rule="nonzero"/></clipPath><clipPath id="b74686bc9c"><path d="M 4.652344 1.109375 C 5.207031 1.109375 5.65625 1.5625 5.65625 2.117188 C 5.65625 2.671875 5.207031 3.125 4.652344 3.125 C 4.09375 3.125 3.644531 2.671875 3.644531 2.117188 C 3.644531 1.5625 4.09375 1.109375 4.652344 1.109375 Z M 10.753906 8.136719 C 11.226562 8.136719 11.617188 8.523438 11.617188 9 C 11.617188 9.476562 11.230469 9.859375 10.753906 9.859375 C 10.277344 9.859375 9.894531 9.476562 9.894531 9 C 9.894531 8.523438 10.277344 8.136719 10.753906 8.136719 Z M 20.761719 11.21875 C 21.25 11.21875 21.648438 11.617188 21.648438 12.101562 C 21.648438 12.589844 21.25 12.988281 20.761719 12.988281 C 20.273438 12.988281 19.878906 12.59375 19.878906 12.101562 C 19.878906 11.613281 20.277344 11.21875 20.761719 11.21875 Z M 24.074219 18.464844 C 24.609375 18.464844 25.042969 18.898438 25.042969 19.433594 C 25.042969 19.964844 24.609375 20.402344 24.074219 20.402344 C 23.539062 20.402344 23.105469 19.96875 23.105469 19.433594 C 23.105469 18.894531 23.539062 18.464844 24.074219 18.464844 Z M 4.628906 0.28125 C 4.007812 0.28125 3.441406 0.636719 3.09375 1.289062 C 2.578125 2.246094 2.921875 3.085938 4.058594 3.804688 C 4.324219 3.972656 4.605469 4.277344 4.664062 4.566406 C 4.839844 5.410156 4.953125 6.273438 5.015625 7.132812 C 5.4375 12.800781 4.207031 18.0625 0.871094 23.105469 C 2.347656 22.507812 3.519531 22.078125 4.664062 21.570312 C 8.402344 19.902344 12.226562 18.933594 16.171875 18.933594 C 17.867188 18.933594 19.585938 19.113281 21.328125 19.492188 C 21.769531 19.589844 22.234375 19.960938 22.515625 20.335938 C 22.9375 20.898438 23.503906 21.214844 24.078125 21.214844 C 24.382812 21.214844 24.691406 21.125 24.984375 20.9375 C 25.519531 20.589844 25.820312 19.976562 25.824219 19.367188 L 25.824219 19.347656 C 25.820312 19.03125 25.738281 18.714844 25.570312 18.4375 C 25.242188 17.902344 24.695312 17.632812 24.105469 17.632812 C 23.769531 17.632812 23.417969 17.71875 23.089844 17.894531 C 22.792969 18.050781 22.414062 18.164062 22.070312 18.164062 C 21.992188 18.164062 21.917969 18.160156 21.84375 18.148438 C 19.914062 17.8125 17.984375 17.613281 16.054688 17.613281 C 14.308594 17.613281 12.5625 17.777344 10.820312 18.136719 L 8.085938 18.808594 C 11.273438 16.550781 14.730469 14.878906 18.332031 13.503906 C 18.617188 13.394531 18.878906 13.300781 19.148438 13.300781 C 19.398438 13.300781 19.652344 13.378906 19.941406 13.597656 C 20.191406 13.785156 20.46875 13.867188 20.75 13.867188 C 21.332031 13.867188 21.921875 13.5 22.25 12.933594 C 22.71875 12.109375 22.484375 11.066406 21.699219 10.523438 C 21.390625 10.308594 21 10.195312 20.628906 10.195312 C 20.113281 10.195312 19.628906 10.414062 19.421875 10.894531 C 18.917969 12.046875 17.902344 12.175781 16.988281 12.617188 L 8.425781 16.820312 C 8.105469 16.976562 7.804688 17.164062 7.390625 17.398438 C 8.566406 15.246094 9.644531 13.246094 10.765625 11.265625 C 10.921875 10.992188 11.253906 10.792969 11.539062 10.617188 C 12.527344 10.007812 12.859375 9.007812 12.34375 8.113281 C 11.992188 7.5 11.417969 7.167969 10.816406 7.167969 C 10.515625 7.167969 10.210938 7.25 9.921875 7.425781 C 8.992188 7.972656 8.769531 8.957031 9.316406 9.984375 C 9.425781 10.195312 9.628906 10.507812 9.554688 10.644531 L 5.351562 18.050781 C 5.246094 17.992188 5.136719 17.933594 5.027344 17.878906 L 5.1875 17.335938 C 6.324219 13.5625 6.796875 9.734375 6.207031 5.800781 C 6.070312 4.898438 5.96875 3.914062 6.1875 3.054688 C 6.488281 1.882812 6.320312 0.871094 5.382812 0.449219 C 5.128906 0.335938 4.875 0.28125 4.628906 0.28125 Z M 4.628906 0.28125 " clip-rule="nonzero"/></clipPath><clipPath id="c5c9d7b491"><rect x="0" width="26" y="0" height="24"/></clipPath></defs><g clip-path="url(#c694f2a020)"><g clip-path="url(#23a9ecae2e)"><g transform="matrix(1, 0, 0, 1, 1, 11)"><g clip-path="url(#4bfd44275d)"><g clip-path="url(#de08378db9)"><g clip-path="url(#c76316d9a7)"><rect x="-9.25" width="54" fill="#ffffff" height="53.999999" y="-19.25" fill-opacity="1"/></g></g></g></g></g></g><g clip-path="url(#5cd9495784)"><g clip-path="url(#c657146f1c)"><g transform="matrix(1, 0, 0, 1, 24, 21)"><g clip-path="url(#4adc5df2c5)"><g clip-path="url(#6de42efa4b)"><g clip-path="url(#22f3f4fb2c)"><rect x="-32.25" width="54" fill="#00c2ff" height="53.999999" y="-29.25" fill-opacity="1"/></g></g></g></g></g></g><g clip-path="url(#d5eafb0049)"><g clip-path="url(#b4b25bb257)"><g transform="matrix(1, 0, 0, 1, 10, 2)"><g clip-path="url(#c5c9d7b491)"><g clip-path="url(#45b45bff7a)"><g clip-path="url(#b74686bc9c)"><rect x="-18.25" width="54" fill="#00c2ff" height="53.999999" y="-10.25" fill-opacity="1"/></g></g></g></g></g></g></svg>