<svg xmlns="http://www.w3.org/2000/svg" xmlns:xlink="http://www.w3.org/1999/xlink" width="45" zoomAndPan="magnify" viewBox="0 0 33.75 33.749998" height="45" preserveAspectRatio="xMidYMid meet" version="1.0"><defs><clipPath id="0e84bcbcb7"><path d="M 0 0 L 33.5 0 L 33.5 33.5 L 0 33.5 Z M 0 0 " clip-rule="nonzero"/></clipPath><clipPath id="892e415542"><path d="M 7.300781 11.890625 L 27.136719 11.890625 L 27.136719 28.554688 L 7.300781 28.554688 Z M 7.300781 11.890625 " clip-rule="nonzero"/></clipPath><clipPath id="c5e42f71ff"><path d="M 26.628906 19.566406 L 26.472656 19.667969 L 26.394531 23.625 C 20.28125 24.023438 14.253906 24.417969 8.203125 24.816406 L 8.203125 12.585938 C 10.796875 12.585938 13.324219 12.578125 15.847656 12.59375 C 16.421875 12.597656 16.734375 12.46875 16.546875 11.90625 L 7.371094 11.90625 L 7.371094 27.195312 C 10.136719 27.007812 12.808594 26.824219 15.5 26.640625 L 15.5 28.011719 C 15.035156 28.109375 14.625 28.191406 14.210938 28.277344 L 14.253906 28.480469 C 16.449219 28.40625 18.625 28.230469 20.800781 28.058594 L 20.792969 27.859375 L 19.601562 27.757812 L 19.601562 26.328125 C 22.125 26.140625 24.601562 25.953125 27.117188 25.761719 C 27.117188 23.789062 27.128906 21.925781 27.097656 20.066406 C 27.09375 19.894531 26.792969 19.730469 26.628906 19.566406 " clip-rule="nonzero"/></clipPath><clipPath id="bf6ccf8ea0"><path d="M 0.300781 0.890625 L 20.136719 0.890625 L 20.136719 17.554688 L 0.300781 17.554688 Z M 0.300781 0.890625 " clip-rule="nonzero"/></clipPath><clipPath id="aa60cb902b"><path d="M 19.628906 8.566406 L 19.472656 8.667969 L 19.394531 12.625 C 13.28125 13.023438 7.253906 13.417969 1.203125 13.816406 L 1.203125 1.585938 C 3.796875 1.585938 6.324219 1.578125 8.847656 1.59375 C 9.421875 1.597656 9.734375 1.46875 9.546875 0.90625 L 0.371094 0.90625 L 0.371094 16.195312 C 3.136719 16.007812 5.808594 15.824219 8.5 15.640625 L 8.5 17.011719 C 8.035156 17.109375 7.625 17.191406 7.210938 17.277344 L 7.253906 17.480469 C 9.449219 17.40625 11.625 17.230469 13.800781 17.058594 L 13.792969 16.859375 L 12.601562 16.757812 L 12.601562 15.328125 C 15.125 15.140625 17.601562 14.953125 20.117188 14.761719 C 20.117188 12.789062 20.128906 10.925781 20.097656 9.066406 C 20.09375 8.894531 19.792969 8.730469 19.628906 8.566406 " clip-rule="nonzero"/></clipPath><clipPath id="65907d0806"><rect x="0" width="21" y="0" height="18"/></clipPath><clipPath id="4ac9ae266b"><path d="M 24.0625 19.132812 L 25.847656 19.132812 L 25.847656 20.816406 L 24.0625 20.816406 Z M 24.0625 19.132812 " clip-rule="nonzero"/></clipPath><clipPath id="3b314ec047"><path d="M 25.761719 19.976562 C 25.761719 20.4375 25.390625 20.808594 24.929688 20.808594 C 24.472656 20.808594 24.097656 20.4375 24.097656 19.976562 C 24.097656 19.515625 24.46875 19.144531 24.929688 19.144531 C 25.390625 19.144531 25.761719 19.515625 25.761719 19.976562 " clip-rule="nonzero"/></clipPath><clipPath id="c8023085bf"><path d="M 0.0625 0.132812 L 1.847656 0.132812 L 1.847656 1.816406 L 0.0625 1.816406 Z M 0.0625 0.132812 " clip-rule="nonzero"/></clipPath><clipPath id="88ba33df55"><path d="M 1.761719 0.976562 C 1.761719 1.4375 1.390625 1.808594 0.929688 1.808594 C 0.472656 1.808594 0.0976562 1.4375 0.0976562 0.976562 C 0.0976562 0.515625 0.46875 0.144531 0.929688 0.144531 C 1.390625 0.144531 1.761719 0.515625 1.761719 0.976562 " clip-rule="nonzero"/></clipPath><clipPath id="84c6829ba3"><rect x="0" width="2" y="0" height="2"/></clipPath><clipPath id="48c98914fe"><path d="M 14.34375 4.847656 L 32.691406 4.847656 L 32.691406 21.609375 L 14.34375 21.609375 Z M 14.34375 4.847656 " clip-rule="nonzero"/></clipPath><clipPath id="dc74dada4e"><path d="M 17.195312 5.523438 C 17.601562 5.523438 17.929688 5.851562 17.929688 6.257812 C 17.929688 6.664062 17.601562 6.992188 17.195312 6.992188 C 16.789062 6.992188 16.460938 6.664062 16.460938 6.257812 C 16.460938 5.851562 16.789062 5.523438 17.195312 5.523438 Z M 21.644531 10.648438 C 21.992188 10.648438 22.273438 10.929688 22.273438 11.277344 C 22.273438 11.625 21.996094 11.90625 21.644531 11.90625 C 21.296875 11.90625 21.019531 11.625 21.019531 11.277344 C 21.019531 10.929688 21.300781 10.648438 21.644531 10.648438 Z M 28.945312 12.898438 C 29.304688 12.898438 29.59375 13.1875 29.59375 13.542969 C 29.59375 13.898438 29.304688 14.1875 28.945312 14.1875 C 28.589844 14.1875 28.300781 13.898438 28.300781 13.542969 C 28.300781 13.183594 28.59375 12.898438 28.945312 12.898438 Z M 31.363281 18.179688 C 31.753906 18.179688 32.070312 18.496094 32.070312 18.886719 C 32.070312 19.277344 31.753906 19.59375 31.363281 19.59375 C 30.972656 19.59375 30.65625 19.277344 30.65625 18.886719 C 30.65625 18.496094 30.972656 18.179688 31.363281 18.179688 Z M 17.179688 4.917969 C 16.726562 4.917969 16.3125 5.175781 16.058594 5.652344 C 15.683594 6.351562 15.933594 6.960938 16.761719 7.488281 C 16.953125 7.609375 17.160156 7.832031 17.203125 8.042969 C 17.332031 8.660156 17.414062 9.289062 17.460938 9.914062 C 17.769531 14.050781 16.871094 17.886719 14.4375 21.566406 C 15.511719 21.132812 16.371094 20.820312 17.203125 20.449219 C 19.929688 19.230469 22.722656 18.523438 25.597656 18.523438 C 26.835938 18.523438 28.089844 18.65625 29.359375 18.929688 C 29.679688 19 30.019531 19.273438 30.226562 19.546875 C 30.535156 19.957031 30.945312 20.1875 31.367188 20.1875 C 31.589844 20.1875 31.8125 20.121094 32.027344 19.984375 C 32.417969 19.730469 32.636719 19.285156 32.636719 18.839844 L 32.636719 18.824219 C 32.636719 18.59375 32.578125 18.367188 32.453125 18.160156 C 32.214844 17.773438 31.816406 17.574219 31.386719 17.574219 C 31.140625 17.574219 30.886719 17.636719 30.644531 17.765625 C 30.429688 17.878906 30.152344 17.964844 29.902344 17.964844 C 29.84375 17.964844 29.789062 17.960938 29.738281 17.949219 C 28.328125 17.703125 26.921875 17.5625 25.511719 17.5625 C 24.242188 17.5625 22.964844 17.679688 21.695312 17.941406 L 19.703125 18.433594 C 22.023438 16.785156 24.546875 15.566406 27.175781 14.5625 C 27.382812 14.484375 27.574219 14.414062 27.769531 14.414062 C 27.949219 14.414062 28.136719 14.472656 28.347656 14.632812 C 28.53125 14.765625 28.734375 14.828125 28.9375 14.828125 C 29.363281 14.828125 29.792969 14.558594 30.03125 14.148438 C 30.375 13.546875 30.203125 12.785156 29.632812 12.390625 C 29.402344 12.230469 29.121094 12.148438 28.851562 12.148438 C 28.472656 12.148438 28.121094 12.308594 27.96875 12.660156 C 27.601562 13.5 26.859375 13.59375 26.195312 13.914062 L 19.949219 16.980469 C 19.714844 17.097656 19.496094 17.234375 19.191406 17.40625 C 20.050781 15.835938 20.835938 14.375 21.65625 12.929688 C 21.769531 12.730469 22.007812 12.585938 22.21875 12.457031 C 22.9375 12.011719 23.183594 11.285156 22.804688 10.632812 C 22.550781 10.183594 22.132812 9.941406 21.691406 9.941406 C 21.472656 9.941406 21.25 10.003906 21.039062 10.128906 C 20.363281 10.53125 20.199219 11.246094 20.597656 11.996094 C 20.679688 12.148438 20.824219 12.378906 20.769531 12.476562 L 17.707031 17.878906 C 17.628906 17.835938 17.546875 17.792969 17.46875 17.753906 L 17.585938 17.359375 C 18.414062 14.605469 18.761719 11.8125 18.328125 8.945312 C 18.230469 8.285156 18.15625 7.566406 18.316406 6.941406 C 18.535156 6.085938 18.410156 5.347656 17.726562 5.039062 C 17.542969 4.957031 17.355469 4.917969 17.179688 4.917969 Z M 17.179688 4.917969 " clip-rule="nonzero"/></clipPath><clipPath id="f2580e789e"><path d="M 0.34375 0.847656 L 18.691406 0.847656 L 18.691406 17.609375 L 0.34375 17.609375 Z M 0.34375 0.847656 " clip-rule="nonzero"/></clipPath><clipPath id="7d4b393ce8"><path d="M 3.195312 1.523438 C 3.601562 1.523438 3.929688 1.851562 3.929688 2.257812 C 3.929688 2.664062 3.601562 2.992188 3.195312 2.992188 C 2.789062 2.992188 2.460938 2.664062 2.460938 2.257812 C 2.460938 1.851562 2.789062 1.523438 3.195312 1.523438 Z M 7.644531 6.648438 C 7.992188 6.648438 8.273438 6.929688 8.273438 7.277344 C 8.273438 7.625 7.996094 7.90625 7.644531 7.90625 C 7.296875 7.90625 7.019531 7.625 7.019531 7.277344 C 7.019531 6.929688 7.300781 6.648438 7.644531 6.648438 Z M 14.945312 8.898438 C 15.304688 8.898438 15.59375 9.1875 15.59375 9.542969 C 15.59375 9.898438 15.304688 10.1875 14.945312 10.1875 C 14.589844 10.1875 14.300781 9.898438 14.300781 9.542969 C 14.300781 9.183594 14.59375 8.898438 14.945312 8.898438 Z M 17.363281 14.179688 C 17.753906 14.179688 18.070312 14.496094 18.070312 14.886719 C 18.070312 15.277344 17.753906 15.59375 17.363281 15.59375 C 16.972656 15.59375 16.65625 15.277344 16.65625 14.886719 C 16.65625 14.496094 16.972656 14.179688 17.363281 14.179688 Z M 3.179688 0.917969 C 2.726562 0.917969 2.3125 1.175781 2.058594 1.652344 C 1.683594 2.351562 1.933594 2.960938 2.761719 3.488281 C 2.953125 3.609375 3.160156 3.832031 3.203125 4.042969 C 3.332031 4.660156 3.414062 5.289062 3.460938 5.914062 C 3.769531 10.050781 2.871094 13.886719 0.4375 17.566406 C 1.511719 17.132812 2.371094 16.820312 3.203125 16.449219 C 5.929688 15.230469 8.722656 14.523438 11.597656 14.523438 C 12.835938 14.523438 14.089844 14.65625 15.359375 14.929688 C 15.679688 15 16.019531 15.273438 16.226562 15.546875 C 16.535156 15.957031 16.945312 16.1875 17.367188 16.1875 C 17.589844 16.1875 17.8125 16.121094 18.027344 15.984375 C 18.417969 15.730469 18.636719 15.285156 18.636719 14.839844 L 18.636719 14.824219 C 18.636719 14.59375 18.578125 14.367188 18.453125 14.160156 C 18.214844 13.773438 17.816406 13.574219 17.386719 13.574219 C 17.140625 13.574219 16.886719 13.636719 16.644531 13.765625 C 16.429688 13.878906 16.152344 13.964844 15.902344 13.964844 C 15.84375 13.964844 15.789062 13.960938 15.738281 13.949219 C 14.328125 13.703125 12.921875 13.5625 11.511719 13.5625 C 10.242188 13.5625 8.964844 13.679688 7.695312 13.941406 L 5.703125 14.433594 C 8.023438 12.785156 10.546875 11.566406 13.175781 10.5625 C 13.382812 10.484375 13.574219 10.414062 13.769531 10.414062 C 13.949219 10.414062 14.136719 10.472656 14.347656 10.632812 C 14.53125 10.765625 14.734375 10.828125 14.9375 10.828125 C 15.363281 10.828125 15.792969 10.558594 16.03125 10.148438 C 16.375 9.546875 16.203125 8.785156 15.632812 8.390625 C 15.402344 8.230469 15.121094 8.148438 14.851562 8.148438 C 14.472656 8.148438 14.121094 8.308594 13.96875 8.660156 C 13.601562 9.5 12.859375 9.59375 12.195312 9.914062 L 5.949219 12.980469 C 5.714844 13.097656 5.496094 13.234375 5.191406 13.40625 C 6.050781 11.835938 6.835938 10.375 7.65625 8.929688 C 7.769531 8.730469 8.007812 8.585938 8.21875 8.457031 C 8.9375 8.011719 9.183594 7.285156 8.804688 6.632812 C 8.550781 6.183594 8.132812 5.941406 7.691406 5.941406 C 7.472656 5.941406 7.25 6.003906 7.039062 6.128906 C 6.363281 6.53125 6.199219 7.246094 6.597656 7.996094 C 6.679688 8.148438 6.824219 8.378906 6.769531 8.476562 L 3.707031 13.878906 C 3.628906 13.835938 3.546875 13.792969 3.46875 13.753906 L 3.585938 13.359375 C 4.414062 10.605469 4.761719 7.8125 4.328125 4.945312 C 4.230469 4.285156 4.15625 3.566406 4.316406 2.941406 C 4.535156 2.085938 4.410156 1.347656 3.726562 1.039062 C 3.542969 0.957031 3.355469 0.917969 3.179688 0.917969 Z M 3.179688 0.917969 " clip-rule="nonzero"/></clipPath><clipPath id="3a68220e58"><rect x="0" width="19" y="0" height="18"/></clipPath></defs><g clip-path="url(#0e84bcbcb7)"><path fill="#ffffff" d="M 0 0 L 33.5 0 L 33.5 33.5 L 0 33.5 Z M 0 0 " fill-opacity="1" fill-rule="nonzero"/><path fill="#000000" d="M 0 0 L 33.5 0 L 33.5 33.5 L 0 33.5 Z M 0 0 " fill-opacity="1" fill-rule="nonzero"/></g><g clip-path="url(#892e415542)"><g clip-path="url(#c5e42f71ff)"><g transform="matrix(1, 0, 0, 1, 7, 11)"><g clip-path="url(#65907d0806)"><g clip-path="url(#bf6ccf8ea0)"><g clip-path="url(#aa60cb902b)"><rect x="-14.425" width="48.6" fill="#ffffff" height="48.599997" y="-18.425" fill-opacity="1"/></g></g></g></g></g></g><g clip-path="url(#4ac9ae266b)"><g clip-path="url(#3b314ec047)"><g transform="matrix(1, 0, 0, 1, 24, 19)"><g clip-path="url(#84c6829ba3)"><g clip-path="url(#c8023085bf)"><g clip-path="url(#88ba33df55)"><rect x="-31.425" width="48.6" fill="#00c2ff" height="48.599997" y="-26.425" fill-opacity="1"/></g></g></g></g></g></g><g clip-path="url(#48c98914fe)"><g clip-path="url(#dc74dada4e)"><g transform="matrix(1, 0, 0, 1, 14, 4)"><g clip-path="url(#3a68220e58)"><g clip-path="url(#f2580e789e)"><g clip-path="url(#7d4b393ce8)"><path fill="#00c2ff" d="M -7.492188 0.0546875 L 19.484375 0.0546875 L 19.484375 25.445312 L -7.492188 25.445312 Z M -7.492188 0.0546875 " fill-opacity="1" fill-rule="nonzero"/></g></g></g></g></g></g></svg>