<svg xmlns="http://www.w3.org/2000/svg" xmlns:xlink="http://www.w3.org/1999/xlink" width="100" height="100" preserveAspectRatio="xMidYMid meet" version="1.0" viewBox="0 0 75 75" zoomAndPan="magnify"><defs><clipPath id="7a460957d1"><path d="M 2.203125 24 L 57.316406 24 L 57.316406 70.289062 L 2.203125 70.289062 Z M 2.203125 24" clip-rule="nonzero"/></clipPath><clipPath id="42bf2a6b80"><path d="M 55.902344 45.324219 L 55.46875 45.605469 L 55.25 56.59375 C 38.269531 57.707031 21.519531 58.800781 4.714844 59.902344 L 4.714844 25.929688 C 11.921875 25.929688 18.9375 25.90625 25.953125 25.949219 C 27.542969 25.957031 28.410156 25.605469 27.894531 24.039062 L 2.394531 24.039062 L 2.394531 66.515625 C 10.082031 65.992188 17.511719 65.484375 24.980469 64.972656 L 24.980469 68.789062 C 23.695312 69.054688 22.550781 69.289062 21.402344 69.523438 L 21.519531 70.09375 C 27.625 69.886719 33.667969 69.398438 39.714844 68.914062 L 39.695312 68.363281 L 36.378906 68.085938 L 36.378906 64.109375 C 43.386719 63.582031 50.269531 63.066406 57.261719 62.539062 C 57.261719 57.058594 57.296875 51.882812 57.207031 46.707031 C 57.195312 46.238281 56.363281 45.785156 55.90625 45.324219" clip-rule="nonzero"/></clipPath><clipPath id="10120f81d9"><path d="M 0.203125 0 L 55.316406 0 L 55.316406 46.289062 L 0.203125 46.289062 Z M 0.203125 0" clip-rule="nonzero"/></clipPath><clipPath id="8193cefcfa"><path d="M 53.902344 21.324219 L 53.46875 21.605469 L 53.25 32.59375 C 36.269531 33.707031 19.519531 34.800781 2.714844 35.902344 L 2.714844 1.929688 C 9.921875 1.929688 16.9375 1.90625 23.953125 1.949219 C 25.542969 1.957031 26.410156 1.605469 25.894531 0.0390625 L 0.394531 0.0390625 L 0.394531 42.515625 C 8.082031 41.992188 15.511719 41.484375 22.980469 40.972656 L 22.980469 44.789062 C 21.695312 45.054688 20.550781 45.289062 19.402344 45.523438 L 19.519531 46.09375 C 25.625 45.886719 31.667969 45.398438 37.714844 44.914062 L 37.695312 44.363281 L 34.378906 44.085938 L 34.378906 40.109375 C 41.386719 39.582031 48.269531 39.066406 55.261719 38.539062 C 55.261719 33.058594 55.296875 27.882812 55.207031 22.707031 C 55.195312 22.238281 54.363281 21.785156 53.90625 21.324219" clip-rule="nonzero"/></clipPath><clipPath id="5581344299"><rect width="56" height="47" x="0" y="0"/></clipPath><clipPath id="f8ae0f6d33"><path d="M 48.773438 44.113281 L 53.734375 44.113281 L 53.734375 48.796875 L 48.773438 48.796875 Z M 48.773438 44.113281" clip-rule="nonzero"/></clipPath><clipPath id="04f3f706dd"><path d="M 53.5 46.464844 C 53.5 47.742188 52.460938 48.777344 51.183594 48.777344 C 49.910156 48.777344 48.867188 47.742188 48.867188 46.464844 C 48.867188 45.183594 49.90625 44.148438 51.183594 44.148438 C 52.464844 44.148438 53.5 45.183594 53.5 46.464844" clip-rule="nonzero"/></clipPath><clipPath id="7608f1d659"><path d="M 0.773438 0.113281 L 5.519531 0.113281 L 5.519531 4.796875 L 0.773438 4.796875 Z M 0.773438 0.113281" clip-rule="nonzero"/></clipPath><clipPath id="fcedc28362"><path d="M 5.5 2.464844 C 5.5 3.742188 4.460938 4.777344 3.183594 4.777344 C 1.910156 4.777344 0.867188 3.742188 0.867188 2.464844 C 0.867188 1.183594 1.90625 0.148438 3.183594 0.148438 C 4.464844 0.148438 5.5 1.183594 5.5 2.464844" clip-rule="nonzero"/></clipPath><clipPath id="fb4ec2bc1c"><rect width="6" height="5" x="0" y="0"/></clipPath><clipPath id="a42e3c4402"><path d="M 22 4.433594 L 72.746094 4.433594 L 72.746094 51 L 22 51 Z M 22 4.433594" clip-rule="nonzero"/></clipPath><clipPath id="ea558692f2"><path d="M 29.691406 6.304688 C 30.816406 6.304688 31.734375 7.21875 31.734375 8.34375 C 31.734375 9.472656 30.816406 10.386719 29.691406 10.386719 C 28.566406 10.386719 27.652344 9.472656 27.652344 8.34375 C 27.652344 7.21875 28.566406 6.304688 29.691406 6.304688 Z M 42.058594 20.546875 C 43.023438 20.546875 43.808594 21.328125 43.808594 22.292969 C 43.808594 23.261719 43.027344 24.039062 42.058594 24.039062 C 41.09375 24.039062 40.316406 23.257812 40.316406 22.292969 C 40.316406 21.332031 41.097656 20.546875 42.058594 20.546875 Z M 62.34375 26.792969 C 63.335938 26.792969 64.136719 27.597656 64.136719 28.582031 C 64.136719 29.570312 63.335938 30.375 62.34375 30.375 C 61.355469 30.375 60.554688 29.574219 60.554688 28.582031 C 60.554688 27.589844 61.359375 26.792969 62.34375 26.792969 Z M 69.054688 41.472656 C 70.140625 41.472656 71.019531 42.355469 71.019531 43.4375 C 71.019531 44.519531 70.140625 45.402344 69.054688 45.402344 C 67.972656 45.402344 67.09375 44.523438 67.09375 43.4375 C 67.09375 42.347656 67.972656 41.472656 69.054688 41.472656 Z M 29.648438 4.625 C 28.390625 4.625 27.246094 5.34375 26.535156 6.664062 C 25.492188 8.609375 26.1875 10.304688 28.492188 11.761719 C 29.027344 12.101562 29.597656 12.722656 29.714844 13.308594 C 30.074219 15.019531 30.304688 16.765625 30.433594 18.511719 C 31.289062 29.996094 28.792969 40.660156 22.027344 50.878906 C 25.023438 49.671875 27.402344 48.800781 29.714844 47.769531 C 37.292969 44.386719 45.050781 42.425781 53.039062 42.425781 C 56.476562 42.425781 59.960938 42.789062 63.492188 43.554688 C 64.386719 43.753906 65.328125 44.507812 65.898438 45.265625 C 66.757812 46.40625 67.902344 47.046875 69.066406 47.046875 C 69.683594 47.046875 70.3125 46.867188 70.898438 46.484375 C 71.988281 45.777344 72.597656 44.542969 72.601562 43.308594 L 72.601562 43.265625 C 72.597656 42.621094 72.433594 41.984375 72.089844 41.421875 C 71.425781 40.335938 70.316406 39.785156 69.117188 39.785156 C 68.4375 39.785156 67.730469 39.964844 67.058594 40.316406 C 66.460938 40.632812 65.6875 40.871094 65 40.871094 C 64.839844 40.871094 64.6875 40.859375 64.539062 40.832031 C 60.625 40.152344 56.71875 39.753906 52.804688 39.753906 C 49.269531 39.753906 45.730469 40.078125 42.195312 40.8125 L 36.65625 42.171875 C 43.113281 37.59375 50.121094 34.210938 57.421875 31.417969 C 57.996094 31.199219 58.527344 31.011719 59.074219 31.011719 C 59.578125 31.011719 60.09375 31.167969 60.683594 31.609375 C 61.1875 31.988281 61.75 32.15625 62.316406 32.15625 C 63.5 32.15625 64.699219 31.414062 65.359375 30.265625 C 66.3125 28.597656 65.832031 26.480469 64.246094 25.382812 C 63.613281 24.941406 62.828125 24.710938 62.078125 24.710938 C 61.027344 24.710938 60.046875 25.164062 59.625 26.128906 C 58.609375 28.46875 56.546875 28.730469 54.695312 29.621094 L 37.34375 38.140625 C 36.695312 38.460938 36.082031 38.84375 35.246094 39.316406 C 37.628906 34.953125 39.8125 30.898438 42.085938 26.882812 C 42.398438 26.328125 43.070312 25.929688 43.652344 25.570312 C 45.652344 24.335938 46.328125 22.3125 45.285156 20.496094 C 44.570312 19.257812 43.410156 18.582031 42.191406 18.582031 C 41.582031 18.582031 40.957031 18.75 40.375 19.097656 C 38.492188 20.214844 38.035156 22.203125 39.148438 24.285156 C 39.375 24.710938 39.78125 25.351562 39.628906 25.628906 L 31.117188 40.632812 C 30.894531 40.519531 30.675781 40.398438 30.453125 40.285156 L 30.78125 39.1875 C 33.082031 31.539062 34.042969 23.785156 32.84375 15.8125 C 32.566406 13.984375 32.359375 11.984375 32.804688 10.242188 C 33.414062 7.871094 33.074219 5.816406 31.171875 4.964844 C 30.660156 4.734375 30.144531 4.625 29.648438 4.625 Z M 29.648438 4.625" clip-rule="nonzero"/></clipPath><clipPath id="e62541b110"><path d="M 0 0.558594 L 50.71875 0.558594 L 50.71875 47 L 0 47 Z M 0 0.558594" clip-rule="nonzero"/></clipPath><clipPath id="d008885b12"><path d="M 7.691406 2.304688 C 8.816406 2.304688 9.734375 3.21875 9.734375 4.34375 C 9.734375 5.472656 8.816406 6.386719 7.691406 6.386719 C 6.566406 6.386719 5.652344 5.472656 5.652344 4.34375 C 5.652344 3.21875 6.566406 2.304688 7.691406 2.304688 Z M 20.058594 16.546875 C 21.023438 16.546875 21.808594 17.328125 21.808594 18.292969 C 21.808594 19.261719 21.027344 20.039062 20.058594 20.039062 C 19.09375 20.039062 18.316406 19.257812 18.316406 18.292969 C 18.316406 17.332031 19.097656 16.546875 20.058594 16.546875 Z M 40.34375 22.792969 C 41.335938 22.792969 42.136719 23.597656 42.136719 24.582031 C 42.136719 25.570312 41.335938 26.375 40.34375 26.375 C 39.355469 26.375 38.554688 25.574219 38.554688 24.582031 C 38.554688 23.589844 39.359375 22.792969 40.34375 22.792969 Z M 47.054688 37.472656 C 48.140625 37.472656 49.019531 38.355469 49.019531 39.4375 C 49.019531 40.519531 48.140625 41.402344 47.054688 41.402344 C 45.972656 41.402344 45.09375 40.523438 45.09375 39.4375 C 45.09375 38.347656 45.972656 37.472656 47.054688 37.472656 Z M 7.648438 0.625 C 6.390625 0.625 5.246094 1.34375 4.535156 2.664062 C 3.492188 4.609375 4.1875 6.304688 6.492188 7.761719 C 7.027344 8.101562 7.597656 8.722656 7.714844 9.308594 C 8.074219 11.019531 8.304688 12.765625 8.433594 14.511719 C 9.289062 25.996094 6.792969 36.660156 0.0273438 46.878906 C 3.023438 45.671875 5.402344 44.800781 7.714844 43.769531 C 15.292969 40.386719 23.050781 38.425781 31.039062 38.425781 C 34.476562 38.425781 37.960938 38.789062 41.492188 39.554688 C 42.386719 39.753906 43.328125 40.507812 43.898438 41.265625 C 44.757812 42.40625 45.902344 43.046875 47.066406 43.046875 C 47.683594 43.046875 48.3125 42.867188 48.898438 42.484375 C 49.988281 41.777344 50.597656 40.542969 50.601562 39.308594 L 50.601562 39.265625 C 50.597656 38.621094 50.433594 37.984375 50.089844 37.421875 C 49.425781 36.335938 48.316406 35.785156 47.117188 35.785156 C 46.4375 35.785156 45.730469 35.964844 45.058594 36.316406 C 44.460938 36.632812 43.6875 36.871094 43 36.871094 C 42.839844 36.871094 42.6875 36.859375 42.539062 36.832031 C 38.625 36.152344 34.71875 35.753906 30.804688 35.753906 C 27.269531 35.753906 23.730469 36.078125 20.195312 36.8125 L 14.65625 38.171875 C 21.113281 33.59375 28.121094 30.210938 35.421875 27.417969 C 35.996094 27.199219 36.527344 27.011719 37.074219 27.011719 C 37.578125 27.011719 38.09375 27.167969 38.683594 27.609375 C 39.1875 27.988281 39.75 28.15625 40.316406 28.15625 C 41.5 28.15625 42.699219 27.414062 43.359375 26.265625 C 44.3125 24.597656 43.832031 22.480469 42.246094 21.382812 C 41.613281 20.941406 40.828125 20.710938 40.078125 20.710938 C 39.027344 20.710938 38.046875 21.164062 37.625 22.128906 C 36.609375 24.46875 34.546875 24.730469 32.695312 25.621094 L 15.34375 34.140625 C 14.695312 34.460938 14.082031 34.84375 13.246094 35.316406 C 15.628906 30.953125 17.8125 26.898438 20.085938 22.882812 C 20.398438 22.328125 21.070312 21.929688 21.652344 21.570312 C 23.652344 20.335938 24.328125 18.3125 23.285156 16.496094 C 22.570312 15.257812 21.410156 14.582031 20.191406 14.582031 C 19.582031 14.582031 18.957031 14.75 18.375 15.097656 C 16.492188 16.214844 16.035156 18.203125 17.148438 20.285156 C 17.375 20.710938 17.78125 21.351562 17.628906 21.628906 L 9.117188 36.632812 C 8.894531 36.519531 8.675781 36.398438 8.453125 36.285156 L 8.78125 35.1875 C 11.082031 27.539062 12.042969 19.785156 10.84375 11.8125 C 10.566406 9.984375 10.359375 7.984375 10.804688 6.242188 C 11.414062 3.871094 11.074219 1.816406 9.171875 0.964844 C 8.660156 0.734375 8.144531 0.625 7.648438 0.625 Z M 7.648438 0.625" clip-rule="nonzero"/></clipPath><clipPath id="70387aabcd"><rect width="51" height="47" x="0" y="0"/></clipPath></defs><g clip-path="url(#7a460957d1)"><g clip-path="url(#42bf2a6b80)"><g><g clip-path="url(#5581344299)" transform="matrix(1, 0, 0, 1, 2, 24)"><g clip-path="url(#10120f81d9)"><g clip-path="url(#8193cefcfa)"><rect width="108" height="108" x="-18.5" y="-40.5" fill="#fff" fill-opacity="1"/></g></g></g></g></g></g><g clip-path="url(#f8ae0f6d33)"><g clip-path="url(#04f3f706dd)"><g><g clip-path="url(#fb4ec2bc1c)" transform="matrix(1, 0, 0, 1, 48, 44)"><g clip-path="url(#7608f1d659)"><g clip-path="url(#fcedc28362)"><rect width="108" height="108" x="-64.5" y="-60.5" fill="#00c2ff" fill-opacity="1"/></g></g></g></g></g></g><g clip-path="url(#a42e3c4402)"><g clip-path="url(#ea558692f2)"><g><g clip-path="url(#70387aabcd)" transform="matrix(1, 0, 0, 1, 22, 4)"><g clip-path="url(#e62541b110)"><g clip-path="url(#d008885b12)"><rect width="108" height="108" x="-38.5" y="-20.5" fill="#00c2ff" fill-opacity="1"/></g></g></g></g></g></g></svg>