<?xml version="1.0" encoding="UTF-8"?>
<svg version="1.1" xmlns="http://www.w3.org/2000/svg" width="413" height="100">
<path d="M0 0 C4.17876845 -0.68949679 7.84166465 -0.90020544 12 0 C15.54329449 3.13376799 17.66544302 6.92088301 20 11 C21.16040746 12.81651367 22.32693493 14.62913452 23.5 16.4375 C24.34111328 17.78134766 24.34111328 17.78134766 25.19921875 19.15234375 C28.36931352 24.16535696 31.69437474 29.07575823 35 34 C35.66 34.99 36.32 35.98 37 37 C37.45890625 36.27554688 37.9178125 35.55109375 38.390625 34.8046875 C39.00421875 33.83789062 39.6178125 32.87109375 40.25 31.875 C40.85328125 30.92367188 41.4565625 29.97234375 42.078125 28.9921875 C44.0184718 25.97124106 46.00841483 22.98737775 48 20 C49.88319242 17.10945354 51.75427356 14.21112559 53.625 11.3125 C54.59616523 9.80847174 55.56751211 8.30456074 56.5390625 6.80078125 C56.96396973 6.14247314 57.38887695 5.48416504 57.82666016 4.8059082 C58.87255445 3.19615371 59.93514835 1.59727748 61 0 C64.0390625 -0.29296875 64.0390625 -0.29296875 67.625 -0.1875 C68.81351562 -0.16042969 70.00203125 -0.13335938 71.2265625 -0.10546875 C72.14179687 -0.07066406 73.05703125 -0.03585937 74 0 C70.1464642 7.33653932 65.64666634 14.14638267 61 21 C59.66487241 22.99880267 58.33152174 24.99879346 57 27 C56.34644531 27.9796875 55.69289062 28.959375 55.01953125 29.96875 C53.61871284 32.07133236 52.22045196 34.17562002 50.82421875 36.28125 C49.76654297 37.87453125 49.76654297 37.87453125 48.6875 39.5 C48.05199219 40.4590625 47.41648438 41.418125 46.76171875 42.40625 C45.23314086 44.65675049 43.65466427 46.84129954 42 49 C42.49628906 49.66644531 42.99257813 50.33289062 43.50390625 51.01953125 C47.67988694 56.6852356 51.636243 62.42125393 55.359375 68.39453125 C57.18848399 71.29933052 59.09117112 74.14683853 61 77 C63.26018348 80.41003207 65.50692569 83.82869545 67.75 87.25 C68.35199219 88.16007812 68.95398438 89.07015625 69.57421875 90.0078125 C70.42693359 91.31105469 70.42693359 91.31105469 71.296875 92.640625 C71.81604492 93.42985352 72.33521484 94.21908203 72.87011719 95.03222656 C74 97 74 97 74 99 C69.76194893 99.83900503 66.21220921 100.06573968 62 99 C58.58797078 95.65057682 56.33311985 91.92519787 54.00390625 87.77490234 C52.50088225 85.11756175 50.83997889 82.56624371 49.1875 80 C48.66542969 79.154375 48.14335938 78.30875 47.60546875 77.4375 C46.00961789 74.92925853 46.00961789 74.92925853 43.97265625 72.48828125 C42.10558184 70.13317947 40.66963191 67.82959273 39.25 65.1875 C38.82203125 64.39730469 38.3940625 63.60710938 37.953125 62.79296875 C37.63859375 62.20128906 37.3240625 61.60960937 37 61 C36.33613281 62.00160156 35.67226563 63.00320312 34.98828125 64.03515625 C34.09641734 65.37764614 33.20448668 66.72009168 32.3125 68.0625 C31.87744141 68.71927734 31.44238281 69.37605469 30.99414062 70.05273438 C28.81037645 73.33646865 26.59616681 76.58660342 24.2890625 79.78515625 C21.95127313 82.95791175 21.95127313 82.95791175 20.0625 86.375 C19.73378906 86.94089844 19.40507812 87.50679688 19.06640625 88.08984375 C18.27215074 89.51252121 17.53917703 90.96974531 16.83984375 92.44140625 C15.41521957 95.09544372 14.26516383 97.00132603 12 99 C7.89728019 99.76598094 4.12246913 99.54032362 0 99 C0.55297438 95.10869882 1.59708175 92.76391389 3.9375 89.625 C7.39287629 84.86332292 10.68623982 80.02327209 13.93286133 75.11865234 C16.36813113 71.44292995 18.82391642 67.78318928 21.30859375 64.140625 C21.8600708 63.32722656 22.41154785 62.51382813 22.97973633 61.67578125 C24.06141058 60.08095778 25.14834684 58.48968829 26.2409668 56.90234375 C26.73121338 56.17660156 27.22145996 55.45085938 27.7265625 54.703125 C28.38519287 53.73874512 28.38519287 53.73874512 29.05712891 52.75488281 C30.23664786 50.89157144 30.23664786 50.89157144 30 48 C28.60409027 45.51706269 27.16589344 43.14039667 25.625 40.75 C25.17527832 40.04198242 24.72555664 39.33396484 24.26220703 38.60449219 C18.87560532 30.16367043 13.30265658 21.84438831 7.6640625 13.5703125 C6.59285156 11.98863281 6.59285156 11.98863281 5.5 10.375 C4.8709375 9.45460938 4.241875 8.53421875 3.59375 7.5859375 C2.06897625 5.11191734 0.984833 2.72798741 0 0 Z M36 47 C35.01 48.485 35.01 48.485 34 50 C34.66 50 35.32 50 36 50 C36.33 50.66 36.66 51.32 37 52 C37.99 51.01 38.98 50.02 40 49 C38.68 48.34 37.36 47.68 36 47 Z " fill="#798894" transform="translate(0,0)"/>
<path d="M0 0 C3.63 0 7.26 0 11 0 C12.4334481 2.86689619 12.07491714 5.26610123 12.02172852 8.46923828 C12.01212097 9.13277313 12.00251343 9.79630798 11.99261475 10.47994995 C11.95958935 12.67684422 11.91927073 14.87354182 11.87890625 17.0703125 C11.85460858 18.59202375 11.83076484 20.11374232 11.80735779 21.63546753 C11.74448167 25.64357827 11.67542507 29.65155982 11.60510254 33.6595459 C11.5344509 37.74823109 11.46961498 41.83700799 11.40429688 45.92578125 C11.27523909 53.95062236 11.13965514 61.97533635 11 70 C9.10905624 70.16200221 7.2180024 70.32271979 5.3269043 70.48291016 C4.27383591 70.57255035 3.22076752 70.66219055 2.13578796 70.75454712 C-21.36244545 72.59386443 -21.36244545 72.59386443 -28.4375 67.55859375 C-34.94867972 61.06369198 -35.19597297 53.36559131 -35.25 44.6875 C-35.2809375 43.46256836 -35.2809375 43.46256836 -35.3125 42.21289062 C-35.35829982 35.02804323 -33.82693297 29.7664985 -29.8125 23.6875 C-23.91153912 18.04880405 -17.97666979 17.66720804 -10.02734375 17.69921875 C-7 18 -7 18 0 20 C0 13.4 0 6.8 0 0 Z M-21 31 C-23.56010499 35.42123395 -23.33263597 40.0384973 -23.3125 45 C-23.32861328 45.7940625 -23.34472656 46.588125 -23.36132812 47.40625 C-23.36523167 52.09050729 -23.05934201 55.21701972 -20 59 C-15.54374507 61.97083662 -11.22589174 61.62649579 -6 61 C-3.12913696 59.3923167 -1.5344206 58.46792151 -0.3984375 55.34765625 C0.17554076 51.96568632 0.22473517 48.60772634 0.25 45.1875 C0.270625 44.50107422 0.29125 43.81464844 0.3125 43.10742188 C0.35095444 38.02662866 -0.57328885 34.48884598 -3 30 C-9.52157335 26.73921333 -14.70898807 27.55774819 -21 31 Z " fill="#778692" transform="translate(143,29)"/>
<path d="M0 0 C0 16.5 0 33 0 50 C-15.6083691 51.20064378 -15.6083691 51.20064378 -23.4375 51.25 C-24.28248047 51.270625 -25.12746094 51.29125 -25.99804688 51.3125 C-32.46088108 51.3529243 -36.44215447 49.90351295 -41.6875 46 C-47.80581935 38.06272085 -47.79837654 27.62426514 -47 18 C-45.89114657 11.12338961 -44.27650371 5.69022552 -39 1 C-27.41749814 -5.43472325 -12.2319161 -1.52898951 0 0 Z M-33.25 11.6875 C-36.8104061 18.42684012 -36.89421413 25.97603642 -35.25 33.375 C-33.5575539 36.92913681 -31.53236099 39.2338195 -28 41 C-23.22949789 41.51504536 -19.27342471 41.68977172 -15 39.375 C-10.58664478 34.13414067 -10.62724997 28.5850729 -10.7421875 21.984375 C-11.10676404 17.76412535 -12.10496837 14.79006327 -14 11 C-19.15016558 7.56655628 -28.79455965 6.55978906 -33.25 11.6875 Z " fill="#768591" transform="translate(211,49)"/>
<path d="M0 0 C4.17989377 2.94318208 5.37778533 7.46508082 6.703125 12.19921875 C6.96094191 15.0964825 6.9369869 17.97213124 6.8984375 20.87890625 C6.8956076 21.69167023 6.89277771 22.5044342 6.88986206 23.34182739 C6.87873119 25.9194455 6.85364015 28.49670694 6.828125 31.07421875 C6.81808601 32.82942204 6.80896177 34.58463081 6.80078125 36.33984375 C6.77881515 40.62643801 6.74433478 44.91276805 6.703125 49.19921875 C3.073125 49.19921875 -0.556875 49.19921875 -4.296875 49.19921875 C-5.24797078 45.39483561 -5.38468904 42.56594639 -5.32421875 38.67578125 C-5.31197266 37.40734375 -5.29972656 36.13890625 -5.28710938 34.83203125 C-5.25418156 32.16781237 -5.2130176 29.50394299 -5.16992188 26.83984375 C-5.15348633 24.93332031 -5.15348633 24.93332031 -5.13671875 22.98828125 C-5.11988037 21.83021973 -5.10304199 20.6721582 -5.08569336 19.47900391 C-5.31203882 15.96371498 -5.68013994 11.81595381 -8.296875 9.19921875 C-11.15955067 9.12596707 -13.997594 9.1068367 -16.859375 9.13671875 C-17.66568359 9.14123047 -18.47199219 9.14574219 -19.30273438 9.15039062 C-21.30081256 9.16221357 -23.29885283 9.18014961 -25.296875 9.19921875 C-26.09203542 14.17675318 -26.49040548 19.06002782 -26.61328125 24.1015625 C-26.63406235 24.82412735 -26.65484344 25.5466922 -26.67625427 26.29115295 C-26.74102926 28.57292245 -26.8002953 30.85479542 -26.859375 33.13671875 C-26.90262897 34.69467166 -26.94624531 36.25261455 -26.99023438 37.81054688 C-27.09663539 41.60666797 -27.19809999 45.40289189 -27.296875 49.19921875 C-30.926875 49.19921875 -34.556875 49.19921875 -38.296875 49.19921875 C-38.296875 32.69921875 -38.296875 16.19921875 -38.296875 -0.80078125 C-31.861875 -1.29578125 -31.861875 -1.29578125 -25.296875 -1.80078125 C-16.92156304 -3.89460924 -7.77171011 -4.10173589 0 0 Z " fill="#758390" transform="translate(334.296875,49.80078125)"/>
<path d="M0 0 C4.29 0 8.58 0 13 0 C13.45890625 1.31613281 13.9178125 2.63226563 14.390625 3.98828125 C19.09581894 18.74437207 19.09581894 18.74437207 25 33 C26.73897803 29.19081004 28.21113433 25.46114989 29.375 21.4375 C31.44838228 14.2799197 33.66128798 6.67742404 37 0 C41.29 0 45.58 0 50 0 C49.6596875 0.89976563 49.319375 1.79953125 48.96875 2.7265625 C45.21398368 12.68262182 41.55655051 22.6724811 37.9296875 32.67578125 C37.61612305 33.53896973 37.30255859 34.4021582 36.97949219 35.29150391 C36.28241721 37.21905868 35.59095292 39.14864646 34.90332031 41.07958984 C34.54592773 42.07812988 34.18853516 43.07666992 33.8203125 44.10546875 C33.49562988 45.0183667 33.17094727 45.93126465 32.83642578 46.87182617 C32 49 32 49 31 50 C28.81360547 50.07258946 26.62499611 50.08373783 24.4375 50.0625 C22.64119141 50.04896484 22.64119141 50.04896484 20.80859375 50.03515625 C19.88175781 50.02355469 18.95492187 50.01195312 18 50 C17.78907715 49.41210693 17.5781543 48.82421387 17.36083984 48.21850586 C12.24690392 33.94307239 12.24690392 33.94307239 6.75 19.8125 C0 3.1772541 0 3.1772541 0 0 Z " fill="#778592" transform="translate(217,49)"/>
<path d="M0 0 C0.66 0.33 1.32 0.66 2 1 C0.66511872 4.59391114 -0.96022723 7.75490696 -3 11 C-3.7734375 10.566875 -3.7734375 10.566875 -4.5625 10.125 C-10.83534322 7.22984159 -16.28899895 6.38727882 -23 8 C-26.69113595 10.4607573 -26.93270939 11.77614706 -28 16 C-28.55028687 22.59535003 -29.01236109 29.97527783 -26 36 C-21.33195708 39.04851782 -17.50757377 39.47435396 -12.0234375 38.66015625 C-8.92062497 37.64784869 -7.61482465 35.73818093 -6 33 C-3.04590299 34.37154504 -0.55991624 35.98863724 2 38 C1.58565093 42.83407252 -0.37793954 44.89537674 -4 48 C-11.37395907 50.45798636 -21.81673637 50.51689233 -29.11328125 47.87109375 C-34.50565804 44.4000344 -37.9672614 40.09821581 -40 34 C-41.912122 12.17518475 -41.912122 12.17518475 -36.48828125 3.7109375 C-27.13115191 -7.04607733 -11.66960477 -5.89397888 0 0 Z " fill="#798793" transform="translate(390,51)"/>
<path d="M0 0 C3.96 0 7.92 0 12 0 C12 16.5 12 33 12 50 C8.04 50 4.08 50 0 50 C0 33.5 0 17 0 0 Z " fill="#7A8894" transform="translate(401,49)"/>
<path d="M0 0 C3.63 0 7.26 0 11 0 C11 16.5 11 33 11 50 C7.37 50 3.74 50 0 50 C0 33.5 0 17 0 0 Z " fill="#778693" transform="translate(273,49)"/>
<path d="M0 0 C1.8125 1.1875 1.8125 1.1875 3 3 C3.42030443 6.29238472 3.295454 8.33957342 1.9375 11.375 C0 13 0 13 -3.4375 13.5625 C-7 13 -7 13 -9.5 10.875 C-11 8 -11 8 -11.0625 4.875 C-10 2 -10 2 -7.75 0.0625 C-4.55083641 -1.17354048 -3.19537581 -1.17724372 0 0 Z " fill="#7A8996" transform="translate(282,33)"/>
<path d="M0 0 C2.4375 2.1875 2.4375 2.1875 4 5 C4 8.31195977 3.24393477 9.67765762 1.25 12.3125 C-1 14 -1 14 -3.5 14.5 C-6.90524375 13.81895125 -8.02547983 12.8520847 -10 10 C-10.5 6.4375 -10.5 6.4375 -10 3 C-7.16943492 -0.37490452 -4.24049673 -0.70674945 0 0 Z " fill="#7B8A96" transform="translate(40,11)"/>
<path d="M0 0 C2 2 2 2 2.3125 5.9375 C2.23081662 8.43791894 2.12109418 9.77205801 0.9375 12 C-2.16867275 13.60318593 -4.57990979 13.42751128 -8 13 C-10.66266871 10.76679398 -10.95347082 9.3799883 -11.375 5.9375 C-11 3 -11 3 -9.625 1.1875 C-6.13284416 -1.36446004 -4.17026811 -0.95568644 0 0 Z " fill="#788793" transform="translate(411,33)"/>
</svg>
